<svg xmlns="http://www.w3.org/2000/svg" width="16" height="14">
    <path fill="#151515" fill-rule="evenodd" d="M14.688 1.328c.437.448.765.948.984 1.5.219.563.328 1.133.328 1.711 0 .578-.109 1.143-.328 1.695-.219.553-.547 1.053-.984 1.5-.011 0-.021.011-.032.032L8.016 14 1.344 7.766l-.032-.032c-.437-.447-.765-.947-.984-1.5C.109 5.682 0 5.117 0 4.539c0-.578.109-1.148.328-1.711.219-.552.547-1.052.984-1.5.427-.427.915-.755 1.461-.984C3.32.115 3.896 0 4.5 0c.583 0 1.141.109 1.672.328.531.219 1.005.531 1.422.938.01 0 .145.109.406.328.26-.219.396-.328.406-.328.417-.407.891-.719 1.422-.938C10.359.109 10.916 0 11.5 0c.604 0 1.18.115 1.727.344.546.229 1.033.557 1.461.984zm-6.672 9.938l5.25-4.954c.489-.489.734-1.083.734-1.781s-.245-1.297-.734-1.797c-.24-.239-.511-.422-.813-.547-.302-.124-.62-.187-.953-.187-.334 0-.654.063-.961.187-.307.125-.576.308-.805.547 0 .011-.005.016-.015.016-.011 0-.016.005-.016.016-.01 0-.021.01-.031.031l-1.031.859c-.011.021-.029.037-.055.047-.026.011-.05.021-.07.031-.032.021-.06.04-.086.055-.026.016-.055.029-.086.039-.021.011-.045.018-.071.024-.026.005-.054.013-.085.023-.032 0-.063.005-.094.016-.032.01-.063.015-.094.015-.073 0-.141-.008-.203-.023-.063-.016-.13-.039-.203-.07-.011 0-.021-.006-.032-.016l-.117-.063c-.036-.02-.07-.041-.101-.062l-1.016-.875c-.01-.01-.015-.018-.015-.023 0-.006-.006-.008-.016-.008 0-.011-.005-.016-.016-.016-.01 0-.015-.005-.015-.016-.469-.468-1.058-.703-1.766-.703s-1.297.235-1.766.703C2.245 3.224 2 3.82 2 4.524c0 .702.245 1.299.734 1.788l5.282 4.954z"/>
</svg>
